<svg width="679" height="305" viewBox="0 0 679 305" fill="none" xmlns="http://www.w3.org/2000/svg">
<path d="M0.812 16V15.3L3.724 12.094C4.29333 11.4687 4.75533 10.9507 5.11 10.54C5.474 10.1293 5.74467 9.756 5.922 9.42C6.09933 9.084 6.188 8.72 6.188 8.328C6.188 7.70267 6.006 7.222 5.642 6.886C5.278 6.55 4.79267 6.382 4.186 6.382C3.56067 6.382 3.03333 6.55933 2.604 6.914C2.184 7.26867 1.89933 7.76333 1.75 8.398L0.728 8.174C0.849333 7.60467 1.06867 7.11467 1.386 6.704C1.70333 6.29333 2.1 5.976 2.576 5.752C3.052 5.51867 3.584 5.402 4.172 5.402C4.79733 5.402 5.34333 5.528 5.81 5.78C6.27667 6.032 6.64067 6.37733 6.902 6.816C7.17267 7.25467 7.308 7.75867 7.308 8.328C7.308 8.72 7.224 9.098 7.056 9.462C6.89733 9.826 6.65467 10.218 6.328 10.638C6.00133 11.058 5.58133 11.548 5.068 12.108L2.422 15.02H7.588V16H0.812ZM13.5325 16.168C12.7112 16.168 11.9879 15.944 11.3625 15.496C10.7465 15.0387 10.2659 14.4087 9.92053 13.606C9.5752 12.794 9.40253 11.8513 9.40253 10.778C9.40253 9.70467 9.5752 8.76667 9.92053 7.964C10.2659 7.152 10.7465 6.522 11.3625 6.074C11.9785 5.626 12.6972 5.402 13.5185 5.402C14.3399 5.402 15.0585 5.626 15.6745 6.074C16.2905 6.522 16.7712 7.152 17.1165 7.964C17.4619 8.76667 17.6345 9.70467 17.6345 10.778C17.6345 11.8513 17.4619 12.794 17.1165 13.606C16.7805 14.418 16.3045 15.048 15.6885 15.496C15.0725 15.944 14.3539 16.168 13.5325 16.168ZM13.5325 15.118C14.1299 15.118 14.6525 14.936 15.1005 14.572C15.5485 14.208 15.8985 13.704 16.1505 13.06C16.4025 12.4067 16.5285 11.646 16.5285 10.778C16.5285 9.91 16.4025 9.154 16.1505 8.51C15.8985 7.85667 15.5485 7.35267 15.1005 6.998C14.6525 6.634 14.1252 6.452 13.5185 6.452C12.9212 6.452 12.3985 6.634 11.9505 6.998C11.5025 7.35267 11.1525 7.85667 10.9005 8.51C10.6485 9.154 10.5225 9.91 10.5225 10.778C10.5225 11.6367 10.6485 12.3927 10.9005 13.046C11.1525 13.6993 11.5025 14.208 11.9505 14.572C12.4079 14.936 12.9352 15.118 13.5325 15.118ZM19.7264 16V5.402H20.7764V12.822L20.3284 12.752L24.5424 8.496H25.9004L22.9604 11.506L26.1664 16H24.9064L21.8964 11.842L22.5684 11.898L20.4264 14.11L20.7764 13.242V16H19.7264Z" fill="#999999"/>
<path d="M2.534 73.2V63.75H0.574V62.77H3.654V73.2H2.534ZM9.42331 73.368C8.88198 73.368 8.37798 73.2746 7.91131 73.088C7.45398 72.9013 7.05265 72.6353 6.70731 72.29C6.36198 71.9446 6.10065 71.534 5.92331 71.058L6.77731 70.638C6.99198 71.1793 7.34198 71.6086 7.82731 71.926C8.32198 72.234 8.85398 72.388 9.42331 72.388C9.88065 72.388 10.2866 72.2806 10.6413 72.066C11.0053 71.8513 11.29 71.562 11.4953 71.198C11.7006 70.8246 11.8033 70.4093 11.8033 69.952C11.8033 69.476 11.696 69.056 11.4813 68.692C11.276 68.328 10.996 68.0433 10.6413 67.838C10.2866 67.6233 9.88531 67.516 9.43731 67.516C8.97998 67.516 8.55531 67.6233 8.16331 67.838C7.78065 68.0433 7.50065 68.2953 7.32331 68.594L6.44131 68.426L7.22531 62.77H12.5033V63.75H7.63131L8.06531 63.372L7.43531 67.824L7.00131 67.628C7.32798 67.2266 7.71065 66.942 8.14931 66.774C8.58798 66.5966 9.03598 66.508 9.49331 66.508C10.1653 66.508 10.758 66.6666 11.2713 66.984C11.7846 67.292 12.186 67.7073 12.4753 68.23C12.774 68.7433 12.9233 69.3173 12.9233 69.952C12.9233 70.596 12.7693 71.1793 12.4613 71.702C12.1626 72.2153 11.7473 72.6213 11.2153 72.92C10.6926 73.2186 10.0953 73.368 9.42331 73.368ZM14.9003 73.2V62.602H15.9503V70.022L15.5023 69.952L19.7163 65.696H21.0743L18.1343 68.706L21.3403 73.2H20.0803L17.0703 69.042L17.7423 69.098L15.6003 71.31L15.9503 70.442V73.2H14.9003Z" fill="#999999"/>
<path d="M2.534 130.4V120.95H0.574V119.97H3.654V130.4H2.534ZM10.3333 130.568C9.51198 130.568 8.78865 130.344 8.16331 129.896C7.54731 129.439 7.06665 128.809 6.72131 128.006C6.37598 127.194 6.20331 126.251 6.20331 125.178C6.20331 124.105 6.37598 123.167 6.72131 122.364C7.06665 121.552 7.54731 120.922 8.16331 120.474C8.77931 120.026 9.49798 119.802 10.3193 119.802C11.1406 119.802 11.8593 120.026 12.4753 120.474C13.0913 120.922 13.572 121.552 13.9173 122.364C14.2626 123.167 14.4353 124.105 14.4353 125.178C14.4353 126.251 14.2626 127.194 13.9173 128.006C13.5813 128.818 13.1053 129.448 12.4893 129.896C11.8733 130.344 11.1546 130.568 10.3333 130.568ZM10.3333 129.518C10.9306 129.518 11.4533 129.336 11.9013 128.972C12.3493 128.608 12.6993 128.104 12.9513 127.46C13.2033 126.807 13.3293 126.046 13.3293 125.178C13.3293 124.31 13.2033 123.554 12.9513 122.91C12.6993 122.257 12.3493 121.753 11.9013 121.398C11.4533 121.034 10.926 120.852 10.3193 120.852C9.72198 120.852 9.19931 121.034 8.75131 121.398C8.30331 121.753 7.95331 122.257 7.70131 122.91C7.44931 123.554 7.32331 124.31 7.32331 125.178C7.32331 126.037 7.44931 126.793 7.70131 127.446C7.95331 128.099 8.30331 128.608 8.75131 128.972C9.20865 129.336 9.73598 129.518 10.3333 129.518ZM16.5272 130.4V119.802H17.5772V127.222L17.1292 127.152L21.3432 122.896H22.7012L19.7612 125.906L22.9672 130.4H21.7072L18.6972 126.242L19.3692 126.298L17.2272 128.51L17.5772 127.642V130.4H16.5272Z" fill="#999999"/>
<path d="M4.228 187.768C3.68667 187.768 3.18267 187.675 2.716 187.488C2.25867 187.301 1.85733 187.035 1.512 186.69C1.16667 186.345 0.905333 185.934 0.728 185.458L1.582 185.038C1.79667 185.579 2.14667 186.009 2.632 186.326C3.12667 186.634 3.65867 186.788 4.228 186.788C4.68533 186.788 5.09133 186.681 5.446 186.466C5.81 186.251 6.09467 185.962 6.3 185.598C6.50533 185.225 6.608 184.809 6.608 184.352C6.608 183.876 6.50067 183.456 6.286 183.092C6.08067 182.728 5.80067 182.443 5.446 182.238C5.09133 182.023 4.69 181.916 4.242 181.916C3.78467 181.916 3.36 182.023 2.968 182.238C2.58533 182.443 2.30533 182.695 2.128 182.994L1.246 182.826L2.03 177.17H7.308V178.15H2.436L2.87 177.772L2.24 182.224L1.806 182.028C2.13267 181.627 2.51533 181.342 2.954 181.174C3.39267 180.997 3.84067 180.908 4.298 180.908C4.97 180.908 5.56267 181.067 6.076 181.384C6.58933 181.692 6.99067 182.107 7.28 182.63C7.57867 183.143 7.728 183.717 7.728 184.352C7.728 184.996 7.574 185.579 7.266 186.102C6.96733 186.615 6.552 187.021 6.02 187.32C5.49733 187.619 4.9 187.768 4.228 187.768ZM9.70495 187.6V177.002H10.755V184.422L10.307 184.352L14.521 180.096H15.879L12.939 183.106L16.145 187.6H14.885L11.875 183.442L12.547 183.498L10.405 185.71L10.755 184.842V187.6H9.70495Z" fill="#999999"/>
<path d="M2.534 244.8V235.35H0.574V234.37H3.654V244.8H2.534ZM6.27331 244.8V234.202H7.32331V241.622L6.87531 241.552L11.0893 237.296H12.4473L9.50731 240.306L12.7133 244.8H11.4533L8.44331 240.642L9.11531 240.698L6.97331 242.91L7.32331 242.042V244.8H6.27331Z" fill="#999999"/>
<path d="M5.138 302.168C4.31667 302.168 3.59333 301.944 2.968 301.496C2.352 301.039 1.87133 300.409 1.526 299.606C1.18067 298.794 1.008 297.851 1.008 296.778C1.008 295.705 1.18067 294.767 1.526 293.964C1.87133 293.152 2.352 292.522 2.968 292.074C3.584 291.626 4.30267 291.402 5.124 291.402C5.94533 291.402 6.664 291.626 7.28 292.074C7.896 292.522 8.37667 293.152 8.722 293.964C9.06733 294.767 9.24 295.705 9.24 296.778C9.24 297.851 9.06733 298.794 8.722 299.606C8.386 300.418 7.91 301.048 7.294 301.496C6.678 301.944 5.95933 302.168 5.138 302.168ZM5.138 301.118C5.73533 301.118 6.258 300.936 6.706 300.572C7.154 300.208 7.504 299.704 7.756 299.06C8.008 298.407 8.134 297.646 8.134 296.778C8.134 295.91 8.008 295.154 7.756 294.51C7.504 293.857 7.154 293.353 6.706 292.998C6.258 292.634 5.73067 292.452 5.124 292.452C4.52667 292.452 4.004 292.634 3.556 292.998C3.108 293.353 2.758 293.857 2.506 294.51C2.254 295.154 2.128 295.91 2.128 296.778C2.128 297.637 2.254 298.393 2.506 299.046C2.758 299.699 3.108 300.208 3.556 300.572C4.01333 300.936 4.54067 301.118 5.138 301.118ZM11.3319 302V291.402H12.3819V298.822L11.9339 298.752L16.1479 294.496H17.5059L14.5659 297.506L17.7719 302H16.5119L13.5019 297.842L14.1739 297.898L12.0319 300.11L12.3819 299.242V302H11.3319Z" fill="#999999"/>
<g opacity="0.6">
<path d="M45 269.797H677" stroke="#EBEBEB" stroke-width="1.2" stroke-dasharray="12 12"/>
<path d="M45 216.023H677" stroke="#EBEBEB" stroke-width="1.2" stroke-dasharray="12 12"/>
<path d="M45 162.268H677" stroke="#EBEBEB" stroke-width="1.2" stroke-dasharray="12 12"/>
<path d="M45 108.512H677" stroke="#EBEBEB" stroke-width="1.2" stroke-dasharray="12 12"/>
<path d="M45 54.7461H677" stroke="#EBEBEB" stroke-width="1.2" stroke-dasharray="12 12"/>
<path d="M45 1H677" stroke="#EBEBEB" stroke-width="1.2" stroke-dasharray="12 12"/>
</g>
<g opacity="0.8">
<path d="M45 91.3621L49.3869 87.5764C53.7738 83.7907 62.5477 76.2194 71.3215 84.5111C80.0953 92.8028 88.8692 116.958 97.643 117.127C106.417 117.296 115.191 93.4802 123.964 83.9151C132.738 74.3499 141.512 79.0358 150.286 90.6242C159.06 102.213 167.834 120.704 176.607 128.375C185.381 136.046 194.155 132.897 202.929 143.367C211.703 153.838 220.477 177.927 229.25 178.653C238.024 179.379 246.798 156.742 255.572 145.528C264.346 134.313 273.12 134.52 281.893 144.067C290.667 153.614 299.441 172.5 308.215 153.071C316.989 133.643 325.763 75.8987 334.536 65.5303C343.31 55.162 352.084 92.1691 360.858 103.745C369.632 115.32 378.406 101.464 387.179 94.3623C395.953 87.2602 404.727 86.9117 413.501 87.1917C422.275 87.4717 431.049 88.3801 439.822 101.09C448.596 113.799 457.37 138.31 466.144 149.964C474.918 161.617 483.692 160.413 492.465 133.249C501.239 106.084 510.013 52.9592 518.787 25.0288C527.561 -2.90159 536.335 -5.63752 545.108 12.4383C553.882 30.5142 562.656 69.4018 571.43 99.148C580.204 128.894 588.978 149.499 597.751 137.509C606.525 125.519 615.299 80.9335 624.073 56.5382C632.847 32.1428 641.621 27.9373 650.394 35.8104C659.168 43.6836 667.942 63.6354 672.329 73.6114L676.716 83.5873" stroke="#6865E7" stroke-width="2"/>
<path opacity="0.15" d="M49.3869 87.5764L45 91.3621V271H676.716V83.5873L672.329 73.6113C667.942 63.6354 659.168 43.6836 650.394 35.8104C641.621 27.9373 632.847 32.1428 624.073 56.5381C615.299 80.9334 606.525 125.519 597.751 137.509C588.978 149.499 580.204 128.894 571.43 99.148C562.656 69.4018 553.882 30.5142 545.108 12.4383C536.335 -5.63751 527.561 -2.90159 518.787 25.0288C510.013 52.9592 501.239 106.084 492.465 133.249C483.692 160.413 474.918 161.617 466.144 149.964C457.37 138.31 448.596 113.799 439.822 101.09C431.049 88.3801 422.275 87.4717 413.501 87.1917C404.727 86.9117 395.953 87.2601 387.179 94.3623C378.406 101.464 369.632 115.32 360.858 103.745C352.084 92.169 343.31 55.162 334.536 65.5303C325.763 75.8987 316.989 133.642 308.215 153.071C299.441 172.5 290.667 153.614 281.893 144.067C273.12 134.52 264.346 134.313 255.572 145.528C246.798 156.742 238.024 179.379 229.25 178.653C220.477 177.926 211.703 153.838 202.929 143.367C194.155 132.897 185.381 136.046 176.607 128.375C167.834 120.703 159.06 102.213 150.286 90.6242C141.512 79.0358 132.738 74.3499 123.964 83.915C115.191 93.4801 106.417 117.296 97.643 117.127C88.8692 116.958 80.0953 92.8027 71.3215 84.511C62.5477 76.2193 53.7738 83.7907 49.3869 87.5764Z" fill="url(#paint0_linear_5501_664)"/>
</g>
<path d="M677 132.994L669.978 145.21C662.956 157.426 648.911 181.859 634.867 183.448C620.822 185.036 606.778 163.781 592.733 158.92C578.689 154.058 564.644 165.592 550.6 172.154C536.556 178.716 522.511 180.307 508.467 181.2C494.422 182.093 480.378 182.287 466.333 185.925C452.289 189.563 438.244 196.644 424.2 185.915C410.156 175.186 396.111 146.647 382.067 131.536C368.022 116.425 353.978 114.743 339.933 126.633C325.889 138.523 311.844 163.984 297.8 171.042C283.756 178.1 269.711 166.754 255.667 167.927C241.622 169.101 227.578 182.794 213.533 174.309C199.489 165.824 185.444 135.161 171.4 132.492C157.356 129.823 143.311 155.148 129.267 166.432C115.222 177.716 101.178 174.959 87.1333 175.731C73.0889 176.503 59.0445 180.805 52.0222 182.955L45 185.106" stroke="#F9BA33" stroke-width="4"/>
<path opacity="0.2" d="M669.978 145.21L677 132.994V270.353H45V185.106L52.0223 182.955C59.0445 180.805 73.0889 176.503 87.1334 175.731C101.178 174.959 115.222 177.716 129.267 166.432C143.311 155.148 157.356 129.823 171.4 132.492C185.444 135.161 199.489 165.824 213.533 174.309C227.578 182.794 241.622 169.101 255.667 167.927C269.711 166.754 283.756 178.1 297.8 171.042C311.844 163.984 325.889 138.523 339.933 126.633C353.978 114.743 368.022 116.425 382.067 131.536C396.111 146.647 410.156 175.186 424.2 185.915C438.244 196.644 452.289 189.563 466.333 185.925C480.378 182.287 494.422 182.093 508.467 181.2C522.511 180.307 536.556 178.716 550.6 172.154C564.644 165.592 578.689 154.059 592.733 158.92C606.778 163.781 620.822 185.036 634.867 183.448C648.911 181.859 662.956 157.427 669.978 145.21Z" fill="url(#paint1_linear_5501_664)"/>
<path d="M49.746 302.168C49.0833 302.168 48.4813 302.042 47.94 301.79C47.3987 301.538 46.9413 301.202 46.568 300.782C46.1947 300.353 45.9287 299.881 45.77 299.368L46.778 298.99C47.0207 299.699 47.3987 300.241 47.912 300.614C48.4253 300.978 49.0367 301.16 49.746 301.16C50.194 301.16 50.586 301.09 50.922 300.95C51.2673 300.801 51.5333 300.595 51.72 300.334C51.9067 300.073 52 299.769 52 299.424C52 298.911 51.86 298.514 51.58 298.234C51.3 297.954 50.8987 297.739 50.376 297.59L48.5 297.03C47.7627 296.815 47.1933 296.456 46.792 295.952C46.4 295.448 46.204 294.874 46.204 294.23C46.204 293.679 46.3393 293.194 46.61 292.774C46.8807 292.345 47.2493 292.009 47.716 291.766C48.192 291.523 48.7287 291.402 49.326 291.402C49.9513 291.402 50.5113 291.519 51.006 291.752C51.51 291.976 51.9347 292.275 52.28 292.648C52.6253 293.021 52.8727 293.437 53.022 293.894L52.042 294.286C51.818 293.67 51.468 293.203 50.992 292.886C50.5253 292.569 49.9747 292.41 49.34 292.41C48.9387 292.41 48.584 292.48 48.276 292.62C47.9773 292.76 47.744 292.961 47.576 293.222C47.408 293.483 47.324 293.791 47.324 294.146C47.324 294.575 47.4593 294.963 47.73 295.308C48.0007 295.644 48.416 295.896 48.976 296.064L50.628 296.554C51.4493 296.797 52.07 297.147 52.49 297.604C52.91 298.061 53.12 298.635 53.12 299.326C53.12 299.886 52.9753 300.381 52.686 300.81C52.406 301.23 52.0093 301.561 51.496 301.804C50.992 302.047 50.4087 302.168 49.746 302.168ZM57.7888 302.168C57.2661 302.168 56.7901 302.047 56.3608 301.804C55.9314 301.552 55.5908 301.207 55.3388 300.768C55.0961 300.32 54.9748 299.807 54.9748 299.228V294.496H56.0248V299.102C56.0248 299.503 56.1041 299.858 56.2628 300.166C56.4308 300.465 56.6594 300.698 56.9488 300.866C57.2474 301.034 57.5881 301.118 57.9708 301.118C58.3534 301.118 58.6941 301.034 58.9928 300.866C59.2914 300.689 59.5248 300.441 59.6928 300.124C59.8608 299.797 59.9448 299.41 59.9448 298.962V294.496H60.9948V302H59.9448V300.544L60.1828 300.6C60.0054 301.085 59.7021 301.468 59.2728 301.748C58.8434 302.028 58.3488 302.168 57.7888 302.168ZM63.1542 302V294.496H64.2042V295.952L63.9662 295.896C64.1528 295.411 64.4562 295.028 64.8762 294.748C65.3055 294.468 65.8002 294.328 66.3602 294.328C66.8922 294.328 67.3682 294.449 67.7882 294.692C68.2175 294.935 68.5535 295.271 68.7962 295.7C69.0482 296.12 69.1742 296.596 69.1742 297.128V302H68.1242V297.534C68.1242 297.077 68.0402 296.689 67.8722 296.372C67.7135 296.055 67.4848 295.812 67.1862 295.644C66.8968 295.467 66.5608 295.378 66.1782 295.378C65.7955 295.378 65.4548 295.467 65.1562 295.644C64.8575 295.812 64.6242 296.059 64.4562 296.386C64.2882 296.703 64.2042 297.086 64.2042 297.534V302H63.1542Z" fill="#999999"/>
<path d="M148.565 302V291.57H149.545L153.465 297.254H152.919L156.825 291.57H157.805V302H156.685V293.082L157.049 293.222L153.213 298.78H153.157L149.335 293.222L149.685 293.082V302H148.565ZM163.629 302.168C162.919 302.168 162.275 302 161.697 301.664C161.118 301.319 160.656 300.852 160.311 300.264C159.975 299.667 159.807 298.99 159.807 298.234C159.807 297.487 159.975 296.82 160.311 296.232C160.647 295.644 161.099 295.182 161.669 294.846C162.247 294.501 162.901 294.328 163.629 294.328C164.357 294.328 165.005 294.496 165.575 294.832C166.153 295.168 166.606 295.63 166.933 296.218C167.269 296.806 167.437 297.478 167.437 298.234C167.437 298.999 167.264 299.681 166.919 300.278C166.573 300.866 166.111 301.328 165.533 301.664C164.963 302 164.329 302.168 163.629 302.168ZM163.629 301.118C164.133 301.118 164.585 300.992 164.987 300.74C165.397 300.488 165.719 300.143 165.953 299.704C166.195 299.265 166.317 298.775 166.317 298.234C166.317 297.693 166.195 297.207 165.953 296.778C165.719 296.349 165.397 296.008 164.987 295.756C164.585 295.504 164.133 295.378 163.629 295.378C163.125 295.378 162.667 295.504 162.257 295.756C161.855 296.008 161.533 296.349 161.291 296.778C161.048 297.207 160.927 297.693 160.927 298.234C160.927 298.775 161.048 299.265 161.291 299.704C161.533 300.143 161.855 300.488 162.257 300.74C162.667 300.992 163.125 301.118 163.629 301.118ZM169.288 302V294.496H170.338V295.952L170.1 295.896C170.287 295.411 170.59 295.028 171.01 294.748C171.44 294.468 171.934 294.328 172.494 294.328C173.026 294.328 173.502 294.449 173.922 294.692C174.352 294.935 174.688 295.271 174.93 295.7C175.182 296.12 175.308 296.596 175.308 297.128V302H174.258V297.534C174.258 297.077 174.174 296.689 174.006 296.372C173.848 296.055 173.619 295.812 173.32 295.644C173.031 295.467 172.695 295.378 172.312 295.378C171.93 295.378 171.589 295.467 171.29 295.644C170.992 295.812 170.758 296.059 170.59 296.386C170.422 296.703 170.338 297.086 170.338 297.534V302H169.288Z" fill="#999999"/>
<path d="M255.705 302V292.62H252.821V291.57H259.681V292.62H256.825V302H255.705ZM263.008 302.168C262.485 302.168 262.009 302.047 261.58 301.804C261.151 301.552 260.81 301.207 260.558 300.768C260.315 300.32 260.194 299.807 260.194 299.228V294.496H261.244V299.102C261.244 299.503 261.323 299.858 261.482 300.166C261.65 300.465 261.879 300.698 262.168 300.866C262.467 301.034 262.807 301.118 263.19 301.118C263.573 301.118 263.913 301.034 264.212 300.866C264.511 300.689 264.744 300.441 264.912 300.124C265.08 299.797 265.164 299.41 265.164 298.962V294.496H266.214V302H265.164V300.544L265.402 300.6C265.225 301.085 264.921 301.468 264.492 301.748C264.063 302.028 263.568 302.168 263.008 302.168ZM271.789 302.168C271.089 302.168 270.455 302 269.885 301.664C269.325 301.319 268.882 300.847 268.555 300.25C268.229 299.653 268.065 298.976 268.065 298.22C268.065 297.464 268.224 296.797 268.541 296.218C268.859 295.63 269.288 295.168 269.829 294.832C270.38 294.496 270.996 294.328 271.677 294.328C272.219 294.328 272.699 294.431 273.119 294.636C273.549 294.832 273.913 295.103 274.211 295.448C274.51 295.784 274.739 296.167 274.897 296.596C275.056 297.016 275.135 297.45 275.135 297.898C275.135 297.991 275.131 298.099 275.121 298.22C275.112 298.332 275.098 298.449 275.079 298.57H268.737V297.59H274.477L273.973 298.01C274.057 297.497 273.997 297.039 273.791 296.638C273.595 296.227 273.311 295.905 272.937 295.672C272.564 295.429 272.144 295.308 271.677 295.308C271.211 295.308 270.777 295.429 270.375 295.672C269.983 295.915 269.675 296.255 269.451 296.694C269.227 297.123 269.139 297.637 269.185 298.234C269.139 298.831 269.232 299.354 269.465 299.802C269.708 300.241 270.035 300.581 270.445 300.824C270.865 301.067 271.313 301.188 271.789 301.188C272.34 301.188 272.802 301.057 273.175 300.796C273.549 300.535 273.852 300.208 274.085 299.816L274.981 300.292C274.832 300.628 274.603 300.941 274.295 301.23C273.987 301.51 273.619 301.739 273.189 301.916C272.769 302.084 272.303 302.168 271.789 302.168Z" fill="#999999"/>
<path d="M356.15 302L353.154 291.57H354.288L356.878 300.908H356.64L359.3 291.57H360.49L363.136 300.908H362.884L365.488 291.57H366.622L363.626 302H362.436L359.762 292.62H360.014L357.34 302H356.15ZM370.715 302.168C370.015 302.168 369.38 302 368.811 301.664C368.251 301.319 367.807 300.847 367.481 300.25C367.154 299.653 366.991 298.976 366.991 298.22C366.991 297.464 367.149 296.797 367.467 296.218C367.784 295.63 368.213 295.168 368.755 294.832C369.305 294.496 369.921 294.328 370.603 294.328C371.144 294.328 371.625 294.431 372.045 294.636C372.474 294.832 372.838 295.103 373.137 295.448C373.435 295.784 373.664 296.167 373.823 296.596C373.981 297.016 374.061 297.45 374.061 297.898C374.061 297.991 374.056 298.099 374.047 298.22C374.037 298.332 374.023 298.449 374.005 298.57H367.663V297.59H373.403L372.899 298.01C372.983 297.497 372.922 297.039 372.717 296.638C372.521 296.227 372.236 295.905 371.863 295.672C371.489 295.429 371.069 295.308 370.603 295.308C370.136 295.308 369.702 295.429 369.301 295.672C368.909 295.915 368.601 296.255 368.377 296.694C368.153 297.123 368.064 297.637 368.111 298.234C368.064 298.831 368.157 299.354 368.391 299.802C368.633 300.241 368.96 300.581 369.371 300.824C369.791 301.067 370.239 301.188 370.715 301.188C371.265 301.188 371.727 301.057 372.101 300.796C372.474 300.535 372.777 300.208 373.011 299.816L373.907 300.292C373.757 300.628 373.529 300.941 373.221 301.23C372.913 301.51 372.544 301.739 372.115 301.916C371.695 302.084 371.228 302.168 370.715 302.168ZM379.3 302.168C378.6 302.168 377.97 302 377.41 301.664C376.85 301.319 376.407 300.852 376.08 300.264C375.763 299.667 375.604 298.995 375.604 298.248C375.604 297.492 375.763 296.82 376.08 296.232C376.407 295.644 376.845 295.182 377.396 294.846C377.956 294.501 378.591 294.328 379.3 294.328C379.944 294.328 380.518 294.468 381.022 294.748C381.526 295.028 381.923 295.406 382.212 295.882L382.044 296.176V291.402H383.094V302H382.044V300.32L382.212 300.474C381.951 301.015 381.559 301.435 381.036 301.734C380.523 302.023 379.944 302.168 379.3 302.168ZM379.356 301.118C379.86 301.118 380.313 300.992 380.714 300.74C381.125 300.488 381.447 300.147 381.68 299.718C381.923 299.279 382.044 298.789 382.044 298.248C382.044 297.707 381.923 297.221 381.68 296.792C381.447 296.353 381.125 296.008 380.714 295.756C380.313 295.504 379.86 295.378 379.356 295.378C378.861 295.378 378.413 295.504 378.012 295.756C377.611 296.008 377.293 296.349 377.06 296.778C376.836 297.207 376.724 297.697 376.724 298.248C376.724 298.789 376.836 299.279 377.06 299.718C377.293 300.147 377.606 300.488 377.998 300.74C378.399 300.992 378.852 301.118 379.356 301.118Z" fill="#14171F"/>
<path d="M464.371 302V292.62H461.487V291.57H468.347V292.62H465.491V302H464.371ZM469.576 302V291.402H470.626V295.952L470.388 295.896C470.574 295.411 470.878 295.028 471.298 294.748C471.727 294.468 472.222 294.328 472.782 294.328C473.314 294.328 473.79 294.449 474.21 294.692C474.639 294.935 474.975 295.271 475.218 295.7C475.47 296.12 475.596 296.596 475.596 297.128V302H474.546V297.534C474.546 297.077 474.462 296.689 474.294 296.372C474.126 296.055 473.892 295.812 473.594 295.644C473.304 295.467 472.973 295.378 472.6 295.378C472.226 295.378 471.89 295.467 471.592 295.644C471.293 295.812 471.055 296.059 470.878 296.386C470.71 296.703 470.626 297.086 470.626 297.534V302H469.576ZM480.261 302.168C479.738 302.168 479.262 302.047 478.833 301.804C478.404 301.552 478.063 301.207 477.811 300.768C477.568 300.32 477.447 299.807 477.447 299.228V294.496H478.497V299.102C478.497 299.503 478.576 299.858 478.735 300.166C478.903 300.465 479.132 300.698 479.421 300.866C479.72 301.034 480.06 301.118 480.443 301.118C480.826 301.118 481.166 301.034 481.465 300.866C481.764 300.689 481.997 300.441 482.165 300.124C482.333 299.797 482.417 299.41 482.417 298.962V294.496H483.467V302H482.417V300.544L482.655 300.6C482.478 301.085 482.174 301.468 481.745 301.748C481.316 302.028 480.821 302.168 480.261 302.168Z" fill="#999999"/>
<path d="M562.899 302V291.57H569.339V292.62H564.019V296.246H568.919V297.296H564.019V302H562.899ZM570.455 302V294.496H571.505V295.728L571.365 295.546C571.543 295.191 571.809 294.911 572.163 294.706C572.527 294.501 572.966 294.398 573.479 294.398H573.955V295.448H573.297C572.756 295.448 572.322 295.616 571.995 295.952C571.669 296.288 571.505 296.764 571.505 297.38V302H570.455ZM575.186 302V294.496H576.236V302H575.186ZM575.186 293.11V291.57H576.236V293.11H575.186Z" fill="#999999"/>
<path d="M658.746 302.168C658.083 302.168 657.481 302.042 656.94 301.79C656.399 301.538 655.941 301.202 655.568 300.782C655.195 300.353 654.929 299.881 654.77 299.368L655.778 298.99C656.021 299.699 656.399 300.241 656.912 300.614C657.425 300.978 658.037 301.16 658.746 301.16C659.194 301.16 659.586 301.09 659.922 300.95C660.267 300.801 660.533 300.595 660.72 300.334C660.907 300.073 661 299.769 661 299.424C661 298.911 660.86 298.514 660.58 298.234C660.3 297.954 659.899 297.739 659.376 297.59L657.5 297.03C656.763 296.815 656.193 296.456 655.792 295.952C655.4 295.448 655.204 294.874 655.204 294.23C655.204 293.679 655.339 293.194 655.61 292.774C655.881 292.345 656.249 292.009 656.716 291.766C657.192 291.523 657.729 291.402 658.326 291.402C658.951 291.402 659.511 291.519 660.006 291.752C660.51 291.976 660.935 292.275 661.28 292.648C661.625 293.021 661.873 293.437 662.022 293.894L661.042 294.286C660.818 293.67 660.468 293.203 659.992 292.886C659.525 292.569 658.975 292.41 658.34 292.41C657.939 292.41 657.584 292.48 657.276 292.62C656.977 292.76 656.744 292.961 656.576 293.222C656.408 293.483 656.324 293.791 656.324 294.146C656.324 294.575 656.459 294.963 656.73 295.308C657.001 295.644 657.416 295.896 657.976 296.064L659.628 296.554C660.449 296.797 661.07 297.147 661.49 297.604C661.91 298.061 662.12 298.635 662.12 299.326C662.12 299.886 661.975 300.381 661.686 300.81C661.406 301.23 661.009 301.561 660.496 301.804C659.992 302.047 659.409 302.168 658.746 302.168ZM666.025 302.168C665.549 302.168 665.125 302.079 664.751 301.902C664.378 301.715 664.084 301.463 663.869 301.146C663.655 300.829 663.547 300.465 663.547 300.054C663.547 299.662 663.631 299.307 663.799 298.99C663.967 298.663 664.229 298.388 664.583 298.164C664.938 297.94 665.391 297.781 665.941 297.688L668.881 297.198V298.15L666.193 298.598C665.652 298.691 665.26 298.864 665.017 299.116C664.784 299.368 664.667 299.667 664.667 300.012C664.667 300.348 664.798 300.633 665.059 300.866C665.33 301.099 665.675 301.216 666.095 301.216C666.609 301.216 667.057 301.109 667.439 300.894C667.822 300.67 668.121 300.371 668.335 299.998C668.55 299.625 668.657 299.209 668.657 298.752V296.848C668.657 296.4 668.494 296.036 668.167 295.756C667.841 295.476 667.416 295.336 666.893 295.336C666.436 295.336 666.035 295.453 665.689 295.686C665.344 295.91 665.087 296.204 664.919 296.568L663.967 296.05C664.107 295.733 664.327 295.443 664.625 295.182C664.933 294.921 665.283 294.715 665.675 294.566C666.067 294.407 666.473 294.328 666.893 294.328C667.444 294.328 667.929 294.435 668.349 294.65C668.779 294.865 669.11 295.163 669.343 295.546C669.586 295.919 669.707 296.353 669.707 296.848V302H668.657V300.502L668.811 300.656C668.681 300.936 668.475 301.193 668.195 301.426C667.925 301.65 667.603 301.832 667.229 301.972C666.865 302.103 666.464 302.168 666.025 302.168ZM674.6 302.084C673.928 302.084 673.41 301.888 673.046 301.496C672.682 301.104 672.5 300.544 672.5 299.816V295.546H671.114V294.496H671.464C671.782 294.496 672.034 294.393 672.22 294.188C672.407 293.973 672.5 293.707 672.5 293.39V292.76H673.55V294.496H675.202V295.546H673.55V299.816C673.55 300.068 673.588 300.292 673.662 300.488C673.737 300.675 673.863 300.824 674.04 300.936C674.227 301.048 674.474 301.104 674.782 301.104C674.857 301.104 674.946 301.099 675.048 301.09C675.151 301.081 675.24 301.071 675.314 301.062V302C675.202 302.028 675.076 302.047 674.936 302.056C674.796 302.075 674.684 302.084 674.6 302.084Z" fill="#999999"/>
<defs>
<linearGradient id="paint0_linear_5501_664" x1="360.858" y1="1" x2="360.858" y2="271" gradientUnits="userSpaceOnUse">
<stop stop-color="#4745A4"/>
<stop offset="1" stop-color="#4745A4" stop-opacity="0"/>
</linearGradient>
<linearGradient id="paint1_linear_5501_664" x1="361" y1="118.809" x2="361" y2="270.353" gradientUnits="userSpaceOnUse">
<stop stop-color="#F8CD70"/>
<stop offset="1" stop-color="#F8CD70" stop-opacity="0"/>
</linearGradient>
</defs>
</svg>
